<svg xmlns="http://www.w3.org/2000/svg" width="100" height="100" viewBox="0 0 100 100">
  <defs>
    <style>
      .cls-1 {
        fill: #78d64c;
        fill-rule: evenodd;
      }
    </style>
  </defs>
  <path id="Фигура_3" data-name="Фигура 3" class="cls-1" d="M36.462,100a2.581,2.581,0,0,1,0-3.077,2.324,2.324,0,0,1,1.549-.769h8.52a4.386,4.386,0,0,0,1.549-2.308V62.308a31.487,31.487,0,0,0-1.817-5.6,31.04,31.04,0,0,0-2.831-5.171,30.726,30.726,0,0,0-3.1-3.846c-3.167-3.375-6.828-7.055-9.294-9.231-3.868-3.412-8.21-7.291-10.843-10-2.177-2.239-4.227-4.53-6.2-6.923V20H55.05v1.538H17.873a1.216,1.216,0,0,0,0,.769,1.262,1.262,0,0,0,.775.769c2.348,2.052,4.657,4.09,6.971,6.154,3.474,3.1,7.206,6.553,10.844,10,1.078,1.022,2.551,2.547,3.873,3.846a37.655,37.655,0,0,1,5.422,6.154,29.719,29.719,0,0,1,3.873,8.462v6.154h1.549V57.692a25.026,25.026,0,0,1,1.549-4.615A30.012,30.012,0,0,1,59.7,43.846c4.357-3.927,7.82-7.773,12.393-11.539,2.179-1.795,4.121-3.43,6.2-5.385,1.34-1.262,2.612-2.525,3.873-3.846a1.215,1.215,0,0,0,0-.769,1.262,1.262,0,0,0-.774-0.769H63.57V20H86.032a1.738,1.738,0,0,1,.775.769,1.768,1.768,0,0,1,0,1.538c-2.388,1.992-4.678,4.014-6.971,6.154-2,1.867-5.624,5.583-8.52,8.462-0.934.928-6.039,6.065-6.971,6.923a39.4,39.4,0,0,0-6.971,7.692,33.856,33.856,0,0,0-4.647,10.769V93.846a4.385,4.385,0,0,0,1.549,2.308H62.8a2.324,2.324,0,0,1,1.549.769,2.581,2.581,0,0,1,0,3.077H36.462ZM82.934,0V3.077c-2.849.827-5.642,1.584-8.52,2.308-3.367.847-6.668,1.6-10.069,2.308-0.868,2.554-1.632,5.086-2.324,7.692-0.944,3.559-1.716,7.137-2.324,10.769a13.511,13.511,0,0,1,11.618,3.077,53.1,53.1,0,0,1-4.647,5.385c-3.381,3.417-6.78,5.434-10.069,9.231a35.143,35.143,0,0,0-5.422,8.461H49.629a30.813,30.813,0,0,0-4.647-7.692c-2.667-3.223-7.731-6.976-8.52-7.692A45.977,45.977,0,0,1,30.265,30h1.549a29.557,29.557,0,0,0,3.1,1.538,29.65,29.65,0,0,0,4.647,1.538h4.647a9.381,9.381,0,0,0,3.873-1.538,27.864,27.864,0,0,0,3.1-3.077,11.948,11.948,0,0,1,3.873-2.308H56.6a103.744,103.744,0,0,1,3.1-13.846c0.7-2.348,1.462-4.628,2.324-6.923,2.311-.855,4.607-1.615,6.971-2.308A105.7,105.7,0,0,1,82.934,0Z"/>
</svg>
