<svg xmlns="http://www.w3.org/2000/svg" width="100" height="100" viewBox="0 0 100 100">
  <defs>
    <style>
      .cls-1 {
        fill: #ffc82d;
        fill-rule: evenodd;
      }
    </style>
  </defs>
  <path id="Фигура_1" data-name="Фигура 1" class="cls-1" d="M42.484,95.477H59.742a2.279,2.279,0,0,0,1.613-.969,2.454,2.454,0,0,0-.322-2.908V91.438a10.8,10.8,0,0,0,4.194-4.523,14,14,0,0,0,1.613,0c2.94-.171,6.726-1.138,8.71-4.039A8.658,8.658,0,0,0,77,78.352V77.06a6.486,6.486,0,0,0-.323-2.262A6.966,6.966,0,0,0,74.9,72.052a17.113,17.113,0,0,0-7.258-4.039A36.164,36.164,0,0,0,62,66.882c-2.47-.256-4.977-0.415-7.581-0.485a1,1,0,0,1,.161-1.292,1.419,1.419,0,0,0,.806,0,1.291,1.291,0,0,0,.968-1.131,1.225,1.225,0,0,0-.806-1.131V62.52A3.817,3.817,0,0,0,57,61.389a3.908,3.908,0,0,0,.806-2.585V56.866a5.209,5.209,0,0,1,.645-0.808,6.679,6.679,0,0,1,1.29-.969A15.851,15.851,0,0,0,62,53.15c0.82-.725,1.673-1.419,2.581-2.1V50.081a34.117,34.117,0,0,0,7.581-7.593,14.252,14.252,0,0,0,2.1-4.362,11.623,11.623,0,0,0-5.484-13.247c-0.41-.234-1.128-0.537-1.774-0.808a30.561,30.561,0,0,0-7.9-2.423,29.643,29.643,0,0,0-3.387,0c-0.708.034-1.4,0.087-2.1,0.162a0.371,0.371,0,0,1-.323.162,0.382,0.382,0,0,1-.323-0.323,0.457,0.457,0,0,1,.323-0.485,1.3,1.3,0,0,0,0-2.585l-0.323-.485V15.186a0.571,0.571,0,0,1,.484-0.485h5.484a11.424,11.424,0,0,0,2.419-.646,5.444,5.444,0,0,0,2.419-1.616,4.488,4.488,0,0,0,.484-0.808,5.9,5.9,0,0,0,.323-1.131,0.539,0.539,0,0,0,0-.323,0.59,0.59,0,0,0-.323-0.323H53.452a0.485,0.485,0,0,1,0-.969l1.29-.162a1.391,1.391,0,0,0,.806-0.808,1.425,1.425,0,0,0-.323-1.454V5.977A7.776,7.776,0,0,0,56.677.808,0.616,0.616,0,0,0,56.355,0H45.548a0.809,0.809,0,0,0-.161.162,0.91,0.91,0,0,0-.161.646,9.758,9.758,0,0,0,.645,3.716,9.564,9.564,0,0,0,.806,1.616V6.462a1.36,1.36,0,0,0-.323,1.454,1.344,1.344,0,0,0,.968.808l1.29,0.162a0.528,0.528,0,0,1,.323.646,0.514,0.514,0,0,1-.484.323H37.484a3.513,3.513,0,0,0,.323,2.1,4.174,4.174,0,0,0,1.774,1.615A10.755,10.755,0,0,0,42.807,14.7h5.322a0.83,0.83,0,0,1,.968.808v2.423l-0.323.646a1.442,1.442,0,0,0-1.129,1.131,1.475,1.475,0,0,0,1.129,1.616,0.574,0.574,0,0,1,.323.162,0.591,0.591,0,0,1,.161.485v0.485a0.651,0.651,0,0,1-.161.485,0.729,0.729,0,0,1-.484.162,2.418,2.418,0,0,0-.645.162c-3.028.962-6.024,1.927-9.032,2.908C35.377,27.332,23.4,31.272,17,38.611a19.1,19.1,0,0,0-4.193,7.431,17.548,17.548,0,0,0-.645,4.2L12,52.827a33.38,33.38,0,0,0,6.936,16.8,31.065,31.065,0,0,0,3.71,3.877,0.954,0.954,0,0,1,.161.808,0.928,0.928,0,0,1-.323.485,16.788,16.788,0,0,0-3.226,5.977,16.527,16.527,0,0,0-.645,3.554,15.937,15.937,0,0,0,0,4.523c0.032,1.25.085,2.468,0.161,3.716,0.083,1.359.188,2.683,0.323,4.039a5.133,5.133,0,0,1,.645,1.777v0.969a0.826,0.826,0,0,0,1.613,0V98.223A1.891,1.891,0,0,1,22,96.607a2.617,2.617,0,0,1,0-1.131,2.556,2.556,0,0,1,.161-0.485,1.3,1.3,0,0,1,0-.323,5.431,5.431,0,0,0,.161-0.646A0.937,0.937,0,0,0,22,93.376a1.152,1.152,0,0,1-.484-1.454,1.033,1.033,0,0,1,.806-0.485q0.081-2.585.161-5.17a4.456,4.456,0,0,0,0-2.423,4.046,4.046,0,0,1,0-1.292,4,4,0,0,1,.161-0.646,12.145,12.145,0,0,1,2.742-5.17,0.806,0.806,0,0,1,1.29,0c0.994,0.7,2.012,1.339,3.065,1.939a39.267,39.267,0,0,0,5.484,2.585,1.454,1.454,0,0,1,.806.646,1.5,1.5,0,0,1,0,1.454,3.95,3.95,0,0,0,0,1.454,6.068,6.068,0,0,0,.484,1.292c0.193,0.461.264,0.844,0.484,1.292a7.425,7.425,0,0,0,.968,1.454,11.858,11.858,0,0,0,2.581,2.262,0.809,0.809,0,0,1,0,.969A2.184,2.184,0,0,0,42.484,95.477Zm12.9-25.687a41.529,41.529,0,0,1,12.9,2.1c2.987,1.14,4.5,2.673,5,3.877a5.068,5.068,0,0,1,.323,1.131v1.292a5.433,5.433,0,0,1-1.935,3.877,9.439,9.439,0,0,1-2.9.969,6.559,6.559,0,0,1-1.452.323,5.22,5.22,0,0,1-.806,0,0.954,0.954,0,0,1-.645-0.323,1.137,1.137,0,0,1-.161-0.808q0.012-.39,0-0.808a11.925,11.925,0,0,0-1.29-2.746,15.225,15.225,0,0,0-3.71-3.716,24.469,24.469,0,0,1-4.355-3.877C56.011,70.665,55.689,70.235,55.387,69.79Zm-26.613,4.2a28.928,28.928,0,0,1,6.774-2.908,38.223,38.223,0,0,1,6.935-1.131c1.392-.115,2.781-0.168,4.194-0.161A22.508,22.508,0,0,1,44.1,72.7a37.126,37.126,0,0,1-4.355,3.554,6.188,6.188,0,0,0-1.129.969,4.861,4.861,0,0,0-.645.969l-0.645.162a44.994,44.994,0,0,1-4.677-2.1Q30.654,75.218,28.774,73.99Zm17.9-8.885a0.717,0.717,0,0,1,.806.646,0.707,0.707,0,0,1-.806.485,43.717,43.717,0,0,0-8.871.808,35.893,35.893,0,0,0-7.9,2.423,31.617,31.617,0,0,0-3.871,2.1H25.71A26.542,26.542,0,0,1,15.387,52.019V50.242a16.222,16.222,0,0,1,1.29-5.17A20.033,20.033,0,0,1,23.29,37.48c6.386-4.638,17.464-8.664,26.129-10.985a9.617,9.617,0,0,1,0,2.908c-0.042.272-.1,0.54-0.161,0.808a6.331,6.331,0,0,0-.806.969,5.217,5.217,0,0,0-.806,1.777,4.178,4.178,0,0,0,1.129,3.392,1.907,1.907,0,0,1-.161.646c-0.234.516-.578,0.629-0.806,1.131a3.667,3.667,0,0,0-.161.808,4.191,4.191,0,0,0,0,1.131,2.966,2.966,0,0,0,.806,1.292,4.706,4.706,0,0,1,.968,2.1c0.03,1.085.03,2.146,0,3.231-0.044,1.572-.151,3.121-0.323,4.685a4.4,4.4,0,0,1-.645.646,1.906,1.906,0,0,0-.806.808,1.5,1.5,0,0,0,.484,1.292l-1.29.646-0.968.485a0.573,0.573,0,0,1-.323-0.161,0.82,0.82,0,0,1-.161-0.485,1.645,1.645,0,0,0-.161-0.485A34.7,34.7,0,0,0,41.677,49.6c-0.573-.617-1.158-1.2-1.774-1.777l-2.419,2.423a1.03,1.03,0,0,0,0,.646,1.055,1.055,0,0,0,.645.646c0.693,0.665,1.38,1.3,2.1,1.939,1.006,0.9,2.012,1.744,3.065,2.585a2.714,2.714,0,0,1,.645,0,0.959,0.959,0,0,1,.484.162,1.152,1.152,0,0,1-.161,1.292,3.173,3.173,0,0,0-.323,1.939,3.926,3.926,0,0,0,.806,1.616,7.339,7.339,0,0,0,1.774,1.615,1.343,1.343,0,0,0-.968,1.616A1.276,1.276,0,0,0,46.677,65.105Zm5.807-38.934a13.069,13.069,0,0,0,0,1.939q0.048,0.65.161,1.292a3.9,3.9,0,0,0,.645,1.616c0.21,0.3.444,0.48,0.645,0.808a3.528,3.528,0,0,1,.484,1.777,3.171,3.171,0,0,1-.484,1.939,5.948,5.948,0,0,0-.645.808,3.042,3.042,0,0,0-.161.323,4.04,4.04,0,0,1,1.129,2.585,3.1,3.1,0,0,1-.323,1.615c-0.247.426-.544,0.581-0.806,0.969a3.023,3.023,0,0,0-.484,1.454,37.42,37.42,0,0,0,0,5.331c0.07,0.978.176,1.938,0.322,2.908a8,8,0,0,1,.968.646,1.129,1.129,0,0,1,.484.646,1.326,1.326,0,0,1-.323.969c-0.105.165-.211,0.324-0.323,0.485l1.452,0.808a0.844,0.844,0,0,0,1.129,0,0.808,0.808,0,0,0,.161-0.808l5-6.139a1.154,1.154,0,0,0,1.613-.808l3.548-4.362a8.112,8.112,0,0,0,2.742-2.746,8.615,8.615,0,0,0,1.613-7.27,9.867,9.867,0,0,0-2.581-3.877,15.44,15.44,0,0,0-7.9-3.716A31,31,0,0,0,54.9,25.2a3.278,3.278,0,0,0-1.613.323A2.824,2.824,0,0,0,52.484,26.171Z"/>
</svg>
