<?xml version="1.0"?>
<svg xmlns="http://www.w3.org/2000/svg" id="Capa_1" enable-background="new 0 0 512 512" height="512px" viewBox="0 0 512 512" width="512px" class=""><g><g><path d="m437 121h-76v45h-30v-45h-60v45h-30v-45h-60v45h-30v-45h-76c-41.422 0-75 33.578-75 75v15h512v-15c0-41.422-33.578-75-75-75z" data-original="#000000" class="active-path" data-old_color="#000000" fill="#A900FF"/><path d="m256 334.75-44.996-33.75h-211.004v15c0 41.42 33.578 75 75 75h362c41.422 0 75-33.58 75-75v-15h-211.004z" data-original="#000000" class="active-path" data-old_color="#000000" fill="#A900FF"/><path d="m497 241h-116.01l-39.996 30h156.006c-8.401 0-15-6.601-15-15 0-8.401 6.599-15 15-15z" data-original="#000000" class="active-path" data-old_color="#000000" fill="#A900FF"/><path d="m15 271h156.006l-39.996-30h-116.01c8.401 0 15 6.599 15 15 0 8.399-6.599 15-15 15z" data-original="#000000" class="active-path" data-old_color="#000000" fill="#A900FF"/><path d="m331 241h-150l75 56.4z" data-original="#000000" class="active-path" data-old_color="#000000" fill="#A900FF"/></g></g> </svg>
