<svg id="Layer_3" enable-background="new 0 0 64 64" height="512" viewBox="0 0 64 64" width="512" xmlns="http://www.w3.org/2000/svg"><g><path d="m3 14h9v4h-9z"/><path d="m3 3h9v9h-9z"/><path d="m3 26h9v4h-9z"/><path d="m3 32h9v4h-9z"/><path d="m14 44h4v9h-4z"/><path d="m26 44h4v9h-4z"/><path d="m32 44h4v9h-4z"/><path d="m20 44h4v9h-4z"/><path d="m26 3h4v9h-4z"/><path d="m3 38h9v4h-9z"/><path d="m46 25h7v-5h-9v6.586l1.293-1.293c.187-.188.442-.293.707-.293z"/><path d="m32 3h4v9h-4z"/><path d="m44 3h9v9h-9z"/><path d="m44 14h9v4h-9z"/><path d="m3 44h9v9h-9z"/><path d="m14 3h4v9h-4z"/><path d="m38 53h3v-7-2h-3z"/><path d="m20 3h4v9h-4z"/><path d="m3 20h9v4h-9z"/><circle cx="47" cy="57" r="1"/><path d="m38 3h4v9h-4z"/><circle cx="53" cy="51" r="1"/><path d="m43 45h14v-14h-14zm7-10c1.654 0 3 1.346 3 3s-1.346 3-3 3-3-1.346-3-3 1.346-3 3-3z"/><path d="m46.414 27-2 2h13.172l2-2z"/><circle cx="50" cy="38" r="1"/><path d="m43 61h14v-14h-14zm10-13c1.654 0 3 1.346 3 3s-1.346 3-3 3-3-1.346-3-3 1.346-3 3-3zm-6 6c1.654 0 3 1.346 3 3s-1.346 3-3 3-3-1.346-3-3 1.346-3 3-3z"/><path d="m59 59.586 2-2v-13.172l-2 2z"/><path d="m22.636 25.464h10.728v5.071h-10.728z" transform="matrix(.707 -.707 .707 .707 -11.598 28)"/><path d="m32.464 33.879h5.071v2.243h-5.071z" transform="matrix(.707 -.707 .707 .707 -14.498 35)"/><path d="m59 30.414v13.172l2-2v-13.172z"/><path d="m14 42h27v-12c0-.276.112-.526.293-.707l.707-.707v-14.586h-28zm25.707-8.707c.391.391.391 1.023 0 1.414l-5 5c-.195.195-.451.293-.707.293s-.512-.098-.707-.293l-3-3c-.391-.391-.391-1.023 0-1.414l5-5c.391-.391 1.023-.391 1.414 0zm-9-13 5 5c.391.391.391 1.023 0 1.414l-9 9c-.195.195-.451.293-.707.293s-.512-.098-.707-.293l-5-5c-.391-.391-.391-1.023 0-1.414l9-9c.391-.391 1.023-.391 1.414 0zm-14.414 1 5-5c.391-.391 1.023-.391 1.414 0l3 3c.391.391.391 1.023 0 1.414l-5 5c-.195.195-.451.293-.707.293s-.512-.098-.707-.293l-3-3c-.391-.391-.391-1.023 0-1.414z"/><path d="m18.464 19.879h5.071v2.243h-5.071z" transform="matrix(.707 -.707 .707 .707 -8.699 21)"/></g></svg>