<svg id="Capa_1" enable-background="new 0 0 512 512" height="512" viewBox="0 0 512 512" width="512" xmlns="http://www.w3.org/2000/svg"><g><path d="m387.239 239.518-20.476-27.979v-68.32h-43.519v68.32l-20.476 27.979c-10.324 14.106-16.983 30.161-19.651 47.141h123.771c-2.666-16.981-9.326-33.035-19.649-47.141z"/><path d="m150.956 0h53.664v41.609h-53.664z"/><path d="m323.245 71.609h43.519v41.609h-43.519z"/><path d="m204.62 71.609h-53.664v66.718l-47.172 102.043v46.288h89.004v179.789h-89.004v45.553h148.008v-271.63l-47.172-102.043z"/><path d="m281.792 466.447h126.424v45.553h-126.424z"/><path d="m281.792 316.658h126.424v119.789h-126.424z"/><path d="m103.784 316.658h59.004v119.789h-59.004z"/></g></svg>