<svg id="Soild" enable-background="new 0 0 512 512" height="512" viewBox="0 0 512 512" width="512" xmlns="http://www.w3.org/2000/svg"><path d="m440 158.629c9.312-3.302 16-12.199 16-22.629s-6.688-19.327-16-22.629v-10.016c3.679-1.011 6.96-3.179 9.38-6.278 3.436-4.399 4.629-10.028 3.274-15.443l-4.894-19.575c-.89-3.561-4.09-6.06-7.761-6.06v-39.999h-16v40c-3.671 0-6.871 2.499-7.761 6.06l-4.894 19.575c-1.354 5.415-.161 11.043 3.274 15.443 2.419 3.099 5.7 5.267 9.38 6.278v10.016c-9.312 3.302-16 12.199-16 22.629s6.688 19.327 16 22.629v1.37h-16v16h15.393c-4.948 40.516-39.563 72-81.393 72h-30v16h30c50.662 0 92.469-38.642 97.494-88h16.508v-16h-16z"/><path d="m185.14 132.116 9.435 15.725c8.273 13.789 21.989 23.431 37.426 26.82v41.339h-24v16h8v16h80v-16h8v-16h-24v-41.339c15.437-3.39 29.152-13.032 37.426-26.82l9.435-15.725c.746-1.243 1.14-2.666 1.14-4.116h24v-16h-72v-44.741c11.436-5.503 20.5-15.461 24.707-28.081l6.883-20.649c.271-.816.41-1.67.41-2.53h16v-15.999h-144.002v16h16c0 .86.139 1.714.41 2.53l6.883 20.649c4.207 12.619 13.271 22.577 24.707 28.08v44.741h-72v16h24c0 1.45.394 2.873 1.14 4.116z"/><ellipse cx="256" cy="348" rx="8" ry="20"/><path d="m296 270.459v-6.459h-80v6.459l-3.466 8.663 43.466 31.047 43.466-31.047z"/><path d="m348.292 439.988-4.997-.003c-.117 0-.235-.003-.353-.008-11.591-.519-17.379-9.2-21.606-15.538-3.998-5.997-5.963-8.438-9.347-8.438-3.382 0-5.347 2.442-9.344 8.438-4.376 6.566-10.374 15.561-22.655 15.561s-18.277-8.995-22.656-15.562c-3.997-5.996-5.962-8.438-9.345-8.438-3.382 0-5.347 2.442-9.344 8.438-4.377 6.567-10.374 15.562-22.656 15.562s-18.277-8.995-22.655-15.562c-3.924-5.886-5.889-8.347-9.159-8.436-1.813.467-7.261 3.714-21.21 22.528 4.652 9.3 10.698 17.892 17.975 25.469h150.121c6.895-7.179 12.685-15.27 17.231-24.011z"/><path d="m152 392c0 10.007 1.428 19.807 4.151 29.153 13.809-17.231 21.333-21.153 27.839-21.153 12.281 0 18.278 8.995 22.656 15.563 3.997 5.995 5.961 8.437 9.343 8.437s5.347-2.442 9.344-8.438c4.378-6.568 10.375-15.562 22.656-15.562 12.282 0 18.278 8.995 22.657 15.562 3.997 5.996 5.962 8.438 9.344 8.438s5.347-2.442 9.344-8.438c4.378-6.567 10.375-15.562 22.656-15.562 12.282 0 18.28 8.995 22.659 15.562 3.779 5.667 5.788 8.213 8.869 8.422l11.459.007c3.289-10.191 5.023-20.966 5.023-31.991 0-36.89-19.557-70.97-51.238-89.643l-3.178-7.944-34.78 24.843c5.667 6.465 9.196 16.741 9.196 28.744 0 20.523-10.317 36-24 36s-24-15.477-24-36c0-12.003 3.529-22.279 9.196-28.743l-34.78-24.843-3.178 7.944c-27.038 15.935-45.244 43.093-50 73.642h-25.238c-30.879 0-56-25.122-56-56s25.121-56 56-56h72v-16h-72c-39.701 0-72 32.299-72 72s32.299 72 72 72zm144-32h16v16h-16zm-96 0h16v16h-16z"/><path d="m121.371 480c-.888 2.503-1.371 5.196-1.371 8 0 13.233 10.767 24 24 24h224c13.233 0 24-10.767 24-24 0-2.804-.483-5.497-1.371-8z"/></svg>